<svg width="348" height="348" viewBox="0 0 348 348" fill="none" xmlns="http://www.w3.org/2000/svg">
<rect width="348" height="348" fill="white"/>
<rect x="48" y="48" width="251" height="251" rx="29" fill="url(#paint0_linear)"/>
<path d="M86.8898 217.592C83.4597 216.22 83.5625 211.33 87.0472 210.104L174.114 179.477C174.99 179.169 175.946 179.175 176.818 179.494L260.399 210.12C263.817 211.373 263.921 216.169 260.561 217.569L176.976 252.373C176.01 252.775 174.925 252.783 173.954 252.394L86.8898 217.592Z" fill="url(#paint1_linear)"/>
<path d="M86.8898 176.592C83.4597 175.22 83.5625 170.33 87.0472 169.104L174.114 138.477C174.99 138.169 175.946 138.175 176.818 138.494L260.399 169.12C263.817 170.373 263.921 175.169 260.561 176.569L176.976 211.373C176.01 211.775 174.925 211.783 173.954 211.394L86.8898 176.592Z" fill="url(#paint2_linear)"/>
<path d="M86.8898 133.592C83.4597 132.22 83.5625 127.33 87.0472 126.104L174.114 95.4766C174.99 95.1685 175.946 95.1747 176.818 95.4942L260.399 126.12C263.817 127.373 263.921 132.169 260.561 133.569L176.976 168.373C176.01 168.775 174.925 168.783 173.954 168.394L86.8898 133.592Z" fill="#D498FF"/>
<circle cx="242.5" cy="247.5" r="76" fill="#4DC492" stroke="white" stroke-width="15"/>
<path d="M287 265.25H197C197.894 257.107 200.737 249.299 205.288 242.488C208.787 237.081 213.483 232.552 219.012 229.25L220.55 228.388L212.975 215.6C212.712 215.167 212.632 214.648 212.751 214.156C212.871 213.664 213.18 213.239 213.612 212.975C213.826 212.847 214.063 212.763 214.31 212.728C214.556 212.693 214.807 212.707 215.048 212.77C215.289 212.833 215.515 212.943 215.712 213.094C215.91 213.245 216.076 213.434 216.2 213.65L224 226.775C229.77 224.469 235.937 223.323 242.15 223.4C248.253 223.326 254.31 224.473 259.963 226.775L267.725 213.65C267.852 213.432 268.022 213.242 268.224 213.092C268.426 212.941 268.657 212.833 268.902 212.773C269.147 212.714 269.402 212.704 269.65 212.745C269.899 212.786 270.137 212.877 270.35 213.013C270.776 213.283 271.078 213.71 271.19 214.202C271.303 214.693 271.216 215.209 270.95 215.638L263.375 228.463L265.25 229.513C270.761 232.943 275.417 237.586 278.863 243.088C283.168 249.789 285.946 257.355 287 265.25ZM258.875 248.45C258.875 249.445 259.27 250.398 259.973 251.102C260.677 251.805 261.63 252.2 262.625 252.2C263.62 252.2 264.573 251.805 265.277 251.102C265.98 250.398 266.375 249.445 266.375 248.45C266.375 247.455 265.98 246.502 265.277 245.798C264.573 245.095 263.62 244.7 262.625 244.7C261.63 244.7 260.677 245.095 259.973 245.798C259.27 246.502 258.875 247.455 258.875 248.45ZM217.625 248.45C217.625 249.445 218.02 250.398 218.723 251.102C219.427 251.805 220.38 252.2 221.375 252.2C222.37 252.2 223.323 251.805 224.027 251.102C224.73 250.398 225.125 249.445 225.125 248.45C225.125 247.455 224.73 246.502 224.027 245.798C223.323 245.095 222.37 244.7 221.375 244.7C220.38 244.7 219.427 245.095 218.723 245.798C218.02 246.502 217.625 247.455 217.625 248.45Z" fill="#386C56"/>
<defs>
<linearGradient id="paint0_linear" x1="104" y1="48" x2="299" y2="313" gradientUnits="userSpaceOnUse">
<stop stop-color="#3D3C6B"/>
<stop offset="1" stop-color="#78437C"/>
</linearGradient>
<linearGradient id="paint1_linear" x1="173.5" y1="179" x2="173.5" y2="253" gradientUnits="userSpaceOnUse">
<stop stop-color="#663C83"/>
<stop offset="1" stop-color="#8255A2"/>
</linearGradient>
<linearGradient id="paint2_linear" x1="173.5" y1="138" x2="173.5" y2="212" gradientUnits="userSpaceOnUse">
<stop stop-color="#8945BA"/>
<stop offset="1" stop-color="#B570E6"/>
</linearGradient>
</defs>
</svg>
