<svg width="348" height="348" viewBox="0 0 348 348" fill="none" xmlns="http://www.w3.org/2000/svg">
<rect width="348" height="348" fill="white"/>
<rect x="48" y="48" width="251" height="251" rx="29" fill="url(#paint0_linear)"/>
<path d="M86.8898 217.592C83.4597 216.22 83.5625 211.33 87.0472 210.104L174.114 179.477C174.99 179.169 175.946 179.175 176.818 179.494L260.399 210.12C263.817 211.373 263.921 216.169 260.561 217.569L176.976 252.373C176.01 252.775 174.925 252.783 173.954 252.394L86.8898 217.592Z" fill="url(#paint1_linear)"/>
<path d="M86.8898 176.592C83.4597 175.22 83.5625 170.33 87.0472 169.104L174.114 138.477C174.99 138.169 175.946 138.175 176.818 138.494L260.399 169.12C263.817 170.373 263.921 175.169 260.561 176.569L176.976 211.373C176.01 211.775 174.925 211.783 173.954 211.394L86.8898 176.592Z" fill="url(#paint2_linear)"/>
<path d="M86.8898 133.592C83.4597 132.22 83.5625 127.33 87.0472 126.104L174.114 95.4766C174.99 95.1685 175.946 95.1747 176.818 95.4942L260.399 126.12C263.817 127.373 263.921 132.169 260.561 133.569L176.976 168.373C176.01 168.775 174.925 168.783 173.954 168.394L86.8898 133.592Z" fill="#D498FF"/>
<circle cx="242.5" cy="247.5" r="76" fill="#4DC392" stroke="white" stroke-width="15"/>
<path d="M282.217 215.049C276.901 209.782 268.325 209.635 262.828 214.717C262.564 214.964 262.411 215.304 262.401 215.663C262.403 216.021 262.545 216.363 262.798 216.619L264.535 218.401C265.004 218.863 265.744 218.914 266.273 218.521C267.651 217.491 269.332 216.936 271.059 216.941C274.299 216.927 277.227 218.853 278.47 221.816C279.714 224.78 279.026 228.193 276.73 230.457C265.653 241.427 250.867 210.692 217.312 226.502C216.158 227.036 215.282 228.024 214.896 229.226C214.51 230.428 214.649 231.736 215.279 232.832L221.031 242.685C222.28 244.818 225.025 245.565 227.2 244.365L227.342 244.285L227.23 244.365L229.781 242.946C232.623 241.198 235.309 239.212 237.809 237.009C238.338 236.559 239.119 236.559 239.648 237.009C239.961 237.251 240.144 237.622 240.146 238.015C240.153 238.397 239.994 238.764 239.709 239.021C237.077 241.336 234.244 243.417 231.244 245.241H231.163L228.612 246.65C227.534 247.255 226.315 247.571 225.076 247.566C222.471 247.566 220.062 246.198 218.745 243.973L213.308 234.664C202.861 241.97 196.52 256.049 199.924 273.913C200.049 274.528 200.592 274.973 201.225 274.979H207.424C208.091 274.979 208.653 274.487 208.735 273.832C209.307 269.339 213.165 265.968 217.739 265.968C222.312 265.968 226.171 269.339 226.742 273.832C226.829 274.489 227.395 274.979 228.063 274.979H234.1C234.766 274.979 235.329 274.487 235.411 273.832C236 269.351 239.856 265.998 244.419 265.998C248.983 265.998 252.838 269.351 253.428 273.832C253.51 274.487 254.072 274.979 254.739 274.979H260.704C261.426 274.979 262.014 274.406 262.025 273.691C262.167 265.368 264.434 255.808 270.897 251.017C293.284 234.432 287.4 220.212 282.217 215.049ZM259.383 240.138L255.115 238.015C255.11 236.761 255.992 235.674 257.23 235.408C258.468 235.143 259.725 235.771 260.244 236.915C260.764 238.059 260.405 239.407 259.383 240.148V240.138Z" fill="#386C56"/>
<defs>
<linearGradient id="paint0_linear" x1="104" y1="48" x2="299" y2="313" gradientUnits="userSpaceOnUse">
<stop stop-color="#3D3C6B"/>
<stop offset="1" stop-color="#78437C"/>
</linearGradient>
<linearGradient id="paint1_linear" x1="173.5" y1="179" x2="173.5" y2="253" gradientUnits="userSpaceOnUse">
<stop stop-color="#663C83"/>
<stop offset="1" stop-color="#8255A2"/>
</linearGradient>
<linearGradient id="paint2_linear" x1="173.5" y1="138" x2="173.5" y2="212" gradientUnits="userSpaceOnUse">
<stop stop-color="#8945BA"/>
<stop offset="1" stop-color="#B570E6"/>
</linearGradient>
</defs>
</svg>
