<svg width="348" height="348" viewBox="0 0 348 348" fill="none" xmlns="http://www.w3.org/2000/svg">
<rect width="348" height="348" fill="white"/>
<rect x="48" y="48" width="251" height="251" rx="29" fill="url(#paint0_linear)"/>
<path d="M86.8898 217.592C83.4597 216.22 83.5625 211.33 87.0472 210.104L174.114 179.477C174.99 179.169 175.946 179.175 176.818 179.494L260.399 210.12C263.817 211.373 263.921 216.169 260.561 217.569L176.976 252.373C176.01 252.775 174.925 252.783 173.954 252.394L86.8898 217.592Z" fill="url(#paint1_linear)"/>
<path d="M86.8898 176.592C83.4597 175.22 83.5625 170.33 87.0472 169.104L174.114 138.477C174.99 138.169 175.946 138.175 176.818 138.494L260.399 169.12C263.817 170.373 263.921 175.169 260.561 176.569L176.976 211.373C176.01 211.775 174.925 211.783 173.954 211.394L86.8898 176.592Z" fill="url(#paint2_linear)"/>
<path d="M86.8898 133.592C83.4597 132.22 83.5625 127.33 87.0472 126.104L174.114 95.4766C174.99 95.1685 175.946 95.1747 176.818 95.4942L260.399 126.12C263.817 127.373 263.921 132.169 260.561 133.569L176.976 168.373C176.01 168.775 174.925 168.783 173.954 168.394L86.8898 133.592Z" fill="#D498FF"/>
<circle cx="242.5" cy="247.5" r="76" fill="#CFCCDE" stroke="white" stroke-width="15"/>
<path d="M223.953 284.35C222.218 283.191 220.678 281.772 219.391 280.133C217.987 278.436 216.685 276.65 215.49 274.802C212.681 270.695 210.485 266.204 208.963 261.47C207.13 255.963 206.239 250.69 206.239 245.531C206.239 239.774 207.486 234.751 209.913 230.534C211.71 227.234 214.386 224.473 217.613 222.534C220.73 220.59 224.36 219.527 228.026 219.454C229.31 219.454 230.703 219.637 232.17 220.004C233.233 220.297 234.516 220.774 236.093 221.36C238.11 222.13 239.21 222.607 239.576 222.717C240.75 223.157 241.74 223.34 242.51 223.34C243.096 223.34 243.94 223.157 244.875 222.864C245.406 222.68 246.415 222.35 247.845 221.727C249.26 221.214 250.382 220.774 251.273 220.444C252.63 220.04 253.942 219.674 255.123 219.49C256.553 219.27 257.972 219.197 259.332 219.307C261.936 219.49 264.319 220.04 266.446 220.847C270.186 222.35 273.203 224.697 275.455 228.034C274.501 228.62 273.621 229.302 272.796 230.05C271.011 231.627 269.496 233.497 268.286 235.569C266.71 238.392 265.903 241.582 265.925 244.809C265.98 248.78 266.988 252.27 269.005 255.295C270.424 257.495 272.32 259.38 274.63 260.927C275.766 261.697 276.764 262.229 277.71 262.577C277.27 263.952 276.786 265.291 276.225 266.611C274.952 269.57 273.438 272.404 271.641 275.081C270.057 277.391 268.811 279.114 267.865 280.251C266.391 282.011 264.968 283.331 263.538 284.273C261.961 285.318 260.11 285.872 258.214 285.872C256.931 285.927 255.647 285.762 254.423 285.406C253.359 285.058 252.311 284.665 251.284 284.222C250.21 283.73 249.099 283.312 247.966 282.975C246.572 282.608 245.142 282.432 243.698 282.436C242.231 282.436 240.801 282.619 239.444 282.968C238.308 283.29 237.208 283.686 236.119 284.159C234.579 284.801 233.57 285.223 232.984 285.406C231.796 285.758 230.578 285.971 229.354 286.048C227.447 286.048 225.672 285.498 223.905 284.398L223.953 284.35ZM249.084 216.663C246.591 217.91 244.222 218.438 241.85 218.262C241.483 215.893 241.85 213.459 242.84 210.793C243.72 208.52 244.893 206.466 246.506 204.633C248.193 202.726 250.21 201.15 252.483 200.013C254.903 198.766 257.213 198.106 259.413 197.996C259.706 200.49 259.413 202.946 258.496 205.586C257.66 207.933 256.414 210.096 254.83 212.04C253.235 213.946 251.255 215.523 249.014 216.66L249.084 216.663Z" fill="#302C35"/>
<defs>
<linearGradient id="paint0_linear" x1="104" y1="48" x2="299" y2="313" gradientUnits="userSpaceOnUse">
<stop stop-color="#3D3C6B"/>
<stop offset="1" stop-color="#78437C"/>
</linearGradient>
<linearGradient id="paint1_linear" x1="173.5" y1="179" x2="173.5" y2="253" gradientUnits="userSpaceOnUse">
<stop stop-color="#663C83"/>
<stop offset="1" stop-color="#8255A2"/>
</linearGradient>
<linearGradient id="paint2_linear" x1="173.5" y1="138" x2="173.5" y2="212" gradientUnits="userSpaceOnUse">
<stop stop-color="#8945BA"/>
<stop offset="1" stop-color="#B570E6"/>
</linearGradient>
</defs>
</svg>
