<svg width="348" height="348" viewBox="0 0 348 348" fill="none" xmlns="http://www.w3.org/2000/svg">
<rect width="348" height="348" fill="white"/>
<rect x="48" y="48" width="251" height="251" rx="29" fill="url(#paint0_linear)"/>
<path d="M86.8898 217.592C83.4597 216.22 83.5625 211.33 87.0472 210.104L174.114 179.477C174.99 179.169 175.946 179.175 176.818 179.494L260.399 210.12C263.817 211.373 263.921 216.169 260.561 217.569L176.976 252.373C176.01 252.775 174.925 252.783 173.954 252.394L86.8898 217.592Z" fill="url(#paint1_linear)"/>
<path d="M86.8898 176.592C83.4597 175.22 83.5625 170.33 87.0472 169.104L174.114 138.477C174.99 138.169 175.946 138.175 176.818 138.494L260.399 169.12C263.817 170.373 263.921 175.169 260.561 176.569L176.976 211.373C176.01 211.775 174.925 211.783 173.954 211.394L86.8898 176.592Z" fill="url(#paint2_linear)"/>
<path d="M86.8898 133.592C83.4597 132.22 83.5625 127.33 87.0472 126.104L174.114 95.4766C174.99 95.1685 175.946 95.1747 176.818 95.4942L260.399 126.12C263.817 127.373 263.921 132.169 260.561 133.569L176.976 168.373C176.01 168.775 174.925 168.783 173.954 168.394L86.8898 133.592Z" fill="#D498FF"/>
<circle cx="242.5" cy="247.5" r="76" fill="#957BFF" stroke="white" stroke-width="15"/>
<path fill-rule="evenodd" clip-rule="evenodd" d="M240.169 245.169C237.727 247.61 233.773 247.61 231.331 245.169C228.89 242.727 228.89 238.769 231.331 236.331C233.773 233.89 237.727 233.89 240.169 236.331C242.61 238.769 242.61 242.727 240.169 245.169ZM281.448 245.256L254.71 218.519C254.023 217.831 253.119 217.406 252.152 217.319L213.219 213.685C211.981 213.56 210.765 214.006 209.885 214.885C209.006 215.765 208.569 216.985 208.681 218.219L212.315 257.152C212.41 258.119 212.831 259.027 213.519 259.71L240.256 286.452C241.735 287.923 243.673 288.66 245.61 288.66C247.548 288.66 249.485 287.923 250.965 286.448L281.448 255.965C282.877 254.54 283.665 252.635 283.665 250.61C283.665 248.585 282.877 246.685 281.448 245.256Z" fill="#231F20"/>
<mask id="mask0" mask-type="alpha" maskUnits="userSpaceOnUse" x="208" y="213" width="76" height="76">
<path fill-rule="evenodd" clip-rule="evenodd" d="M240.169 245.169C237.727 247.61 233.773 247.61 231.331 245.169C228.89 242.727 228.89 238.769 231.331 236.331C233.773 233.89 237.727 233.89 240.169 236.331C242.61 238.769 242.61 242.727 240.169 245.169ZM281.448 245.256L254.71 218.519C254.023 217.831 253.119 217.406 252.152 217.319L213.219 213.685C211.981 213.56 210.765 214.006 209.885 214.885C209.006 215.765 208.569 216.985 208.681 218.219L212.315 257.152C212.41 258.119 212.831 259.027 213.519 259.71L240.256 286.452C241.735 287.923 243.673 288.66 245.61 288.66C247.548 288.66 249.485 287.923 250.965 286.448L281.448 255.965C282.877 254.54 283.665 252.635 283.665 250.61C283.665 248.585 282.877 246.685 281.448 245.256Z" fill="white"/>
</mask>
<g mask="url(#mask0)">
<rect x="192" y="197" width="100" height="100" fill="#3B2885"/>
</g>
<defs>
<linearGradient id="paint0_linear" x1="104" y1="48" x2="299" y2="313" gradientUnits="userSpaceOnUse">
<stop stop-color="#3D3C6B"/>
<stop offset="1" stop-color="#78437C"/>
</linearGradient>
<linearGradient id="paint1_linear" x1="173.5" y1="179" x2="173.5" y2="253" gradientUnits="userSpaceOnUse">
<stop stop-color="#663C83"/>
<stop offset="1" stop-color="#8255A2"/>
</linearGradient>
<linearGradient id="paint2_linear" x1="173.5" y1="138" x2="173.5" y2="212" gradientUnits="userSpaceOnUse">
<stop stop-color="#8945BA"/>
<stop offset="1" stop-color="#B570E6"/>
</linearGradient>
</defs>
</svg>
